# xmcd
#
# Track frame offsets: 
#        150
#        14920
#        26785
#        38607
#        56660
#        77982
#        93597
#        111080
#        126127
#        148622
#
# Disc length: 2200 seconds
#
# Revision: 5
# Processed by: cddbd v1.5.1PL0 Copyright (c) Steve Scherf et al.
# Submitted via: ExactAudioCopy v0.95b3
#
DISCID=8a08960a
DTITLE=Johnny Hallyday - Les années Johnny Vol. 2 - 1973 - 1984
DYEAR=1996
DGENRE=Rock
TTITLE0=Fou d'amour
TTITLE1=A l'hôtel des coeurs brisés
TTITLE2=Hey ! lovely lady
TTITLE3=Je l'aimais - Il est fou
TTITLE4=J'ai oublié de vivre
TTITLE5=Elle m'oublie
TTITLE6=Ma gueule
TTITLE7=A partir de maintenant
TTITLE8=Mon Amérique à moi
TTITLE9=Rien à personne
EXTD=YEAR: 1972
EXTT0=
EXTT1=
EXTT2=
EXTT3=
EXTT4=
EXTT5=
EXTT6=
EXTT7=
EXTT8=
EXTT9=
PLAYORDER=
